<svg xmlns="http://www.w3.org/2000/svg" style="isolation:isolate" viewBox="0 0 140 100" width="140" height="100"><defs><clipPath id="a"><path d="M0 0h140v100H0z"/></clipPath></defs><g style="isolation:isolate" clip-path="url(#a)"><path fill="none" vector-effect="non-scaling-stroke" stroke-width="2" stroke="#FFF" stroke-opacity=".2" stroke-linecap="square" stroke-miterlimit="3" d="M5 5h130v90H5z"/><path d="M70.88 45.89V25.73c0-.3-.18-.55-.44-.67a.72.72 0 0 0-.79.13L51.81 41.58h-6.4a.74.74 0 0 0-.74.74v15.37c0 .41.33.74.74.74h6.4L69.65 74.8c.14.13.32.19.5.19a.72.72 0 0 0 .72-.73V54.12a4.13 4.13 0 0 0 0-8.23zM46.14 56.96V43.04h5.78v13.9h-5.78v.02zM69.41 72.6L52.59 57.15a.35.35 0 0 0-.08-.06V42.91l.08-.05L69.4 27.4v45.2zm1.47-19.07v-7.06a3.54 3.54 0 0 1 0 7.06zm8.31-16.3a.74.74 0 0 0-.82 1.22 13.9 13.9 0 0 1 6.14 11.56 14 14 0 0 1-5.84 11.34.72.72 0 0 0-.16 1.02.72.72 0 0 0 1.02.17 15.41 15.41 0 0 0-.34-25.32zm6.84-6.56a.73.73 0 0 0-1.04.11.73.73 0 0 0 .12 1.04A23.2 23.2 0 0 1 93.86 50c0 7.1-3.2 13.74-8.75 18.18a.74.74 0 0 0-.12 1.03c.14.18.37.27.58.27a.7.7 0 0 0 .46-.16 24.63 24.63 0 0 0 9.3-19.33c0-7.57-3.4-14.6-9.3-19.33z" fill="#FFF"/></g></svg>