<svg xmlns="http://www.w3.org/2000/svg" style="isolation:isolate" viewBox="0 0 140 100" width="140" height="100"><defs><clipPath id="a"><path d="M0 0h140v100H0z"/></clipPath></defs><g style="isolation:isolate" clip-path="url(#a)"><g style="isolation:isolate"><path d="M10.6 13.88c0-2.32 2.02-4.2 4.5-4.2s4.5 1.88 4.5 4.2c0 2.32-2.02 4.2-4.5 4.2s-4.5-1.88-4.5-4.2zm12.6 0c0-2.32 2.02-4.2 4.5-4.2s4.5 1.88 4.5 4.2c0 2.32-2.02 4.2-4.5 4.2s-4.5-1.88-4.5-4.2z" fill="#FFF"/><path vector-effect="non-scaling-stroke" stroke-width=".87" stroke="#FFF" stroke-linecap="square" stroke-miterlimit="3" d="M7 20.6h126"/><path d="M10.91 8H129.1a3.91 3.91 0 0 1 3.91 3.91V88.1a3.91 3.91 0 0 1-3.91 3.91H10.9A3.91 3.91 0 0 1 7 88.09V11.9A3.91 3.91 0 0 1 10.91 8z" fill="none" stroke="#fff" stroke-width=".87" stroke-linecap="square" stroke-miterlimit="3"/><path d="M35.8 13.88c0-2.32 2.02-4.2 4.5-4.2s4.5 1.88 4.5 4.2c0 2.32-2.02 4.2-4.5 4.2s-4.5-1.88-4.5-4.2z" fill="#FFF"/></g><path fill="#FFF" fill-opacity=".1" vector-effect="non-scaling-stroke" stroke-width=".87" stroke="#FFF" stroke-linecap="square" stroke-miterlimit="3" d="M11.5 30h117v55h-117z"/></g></svg>
