<svg xmlns="http://www.w3.org/2000/svg" style="isolation:isolate" viewBox="0 0 140 100" width="140" height="100"><defs><clipPath id="a"><path d="M0 0h140v100H0z"/></clipPath></defs><g clip-path="url(#a)"><path d="M10 10v80h120V10H10zm4.8 4h110.4v52H99.57l-16.8-10H68.59l-9.8-8.17-11.68 1.95-10.34-12.92L14.8 55.17V14zM100 26c-5.96.02-10.78 4.04-10.8 9 0 4.95 4.86 9 10.8 9s10.8-4.05 10.8-9-4.86-9-10.8-9zm0 4c3.34 0 6 2.22 6 5s-2.66 5-6 5-6-2.22-6-5 2.66-5 6-5zM36.03 43.14l8.86 11.08 12.32-2.05 9.4 7.83h14.62l16.8 10h27.17v16H14.8V60.83l21.23-17.69z" fill="#FFF" fill-opacity=".2"/></g></svg>