<svg xmlns="http://www.w3.org/2000/svg" style="isolation:isolate" viewBox="0 0 140 100" width="140" height="100"><defs><clipPath id="a"><path d="M0 0h140v100H0z"/></clipPath></defs><g style="isolation:isolate" fill="#FFF" fill-opacity=".2" stroke="#FFF" clip-path="url(#a)"><path vector-effect="non-scaling-stroke" stroke-width=".5" stroke-linecap="square" stroke-miterlimit="3" d="M23.75 80h92.5v10.5h-92.5z"/><path d="M85.43 7.49c-3.8.17-7.43 1.83-10.26 4.65L64.05 23.26c1.75-1.75 8.27-.61 9.83.95l6.64-6.64a8.35 8.35 0 0 1 5.34-2.5c1.77-.12 3.5.55 4.74 1.81a6.28 6.28 0 0 1 1.81 4.48c0 2-.93 4.05-2.5 5.61L78.28 38.6c-2.95 2.94-7.5 3.28-10.09.7a3.78 3.78 0 0 0-5.35 5.34 13.8 13.8 0 0 0 9.83 3.96c3.9 0 7.9-1.5 10.95-4.57l11.73-11.72A15.62 15.62 0 0 0 100 21.36 13.86 13.86 0 0 0 85.43 7.5zm-18.1 18.88c-3.9 0-7.9 1.5-10.95 4.56L44.64 42.66A15.63 15.63 0 0 0 40 53.6a13.84 13.84 0 0 0 14.57 13.88c3.8-.18 7.44-1.83 10.26-4.66L75.95 51.7c-1.75 1.76-8.26.62-9.83-.95l-6.64 6.64a8.35 8.35 0 0 1-5.34 2.5 6.08 6.08 0 0 1-4.74-1.8 6.28 6.28 0 0 1-1.81-4.49c0-2 .93-4.04 2.5-5.6l11.63-11.64c2.95-2.93 7.5-3.28 10.09-.7a3.78 3.78 0 1 0 5.35-5.34 13.82 13.82 0 0 0-9.83-3.96zm27.5 19.9" vector-effect="non-scaling-stroke" stroke-width=".67"/></g></svg>