<svg xmlns="http://www.w3.org/2000/svg" style="isolation:isolate" viewBox="0 0 140 100" width="140" height="100"><defs><clipPath id="a"><path d="M0 0h140v100H0z"/></clipPath></defs><g style="isolation:isolate" clip-path="url(#a)"><path fill="#FFF" fill-opacity=".2" vector-effect="non-scaling-stroke" stroke-width=".61" stroke="#FFF" stroke-linecap="square" stroke-miterlimit="3" d="M40 12.5h81v15H40z"/><path d="M19.1 12.5h1.8a6.6 6.6 0 0 1 6.6 6.6v1.8a6.6 6.6 0 0 1-6.6 6.6h-1.8a6.6 6.6 0 0 1-6.6-6.6v-1.8a6.6 6.6 0 0 1 6.6-6.6z" fill="#fff" opacity=".2"/><path d="M19.1 12.5h1.8a6.6 6.6 0 0 1 6.6 6.6v1.8a6.6 6.6 0 0 1-6.6 6.6h-1.8a6.6 6.6 0 0 1-6.6-6.6v-1.8a6.6 6.6 0 0 1 6.6-6.6z" fill="none" stroke="#fff" stroke-width=".61" stroke-linecap="square" stroke-miterlimit="3"/><path d="M19.1 42.5h1.8a6.6 6.6 0 0 1 6.6 6.6v1.8a6.6 6.6 0 0 1-6.6 6.6h-1.8a6.6 6.6 0 0 1-6.6-6.6v-1.8a6.6 6.6 0 0 1 6.6-6.6z" fill="#fff" opacity=".2"/><path d="M19.1 42.5h1.8a6.6 6.6 0 0 1 6.6 6.6v1.8a6.6 6.6 0 0 1-6.6 6.6h-1.8a6.6 6.6 0 0 1-6.6-6.6v-1.8a6.6 6.6 0 0 1 6.6-6.6z" fill="none" stroke="#fff" stroke-width=".61" stroke-linecap="square" stroke-miterlimit="3"/><path d="M19.1 75h1.8a6.6 6.6 0 0 1 6.6 6.6v1.8a6.6 6.6 0 0 1-6.6 6.6h-1.8a6.6 6.6 0 0 1-6.6-6.6v-1.8a6.6 6.6 0 0 1 6.6-6.6z" fill="#fff" opacity=".2"/><path d="M19.1 75h1.8a6.6 6.6 0 0 1 6.6 6.6v1.8a6.6 6.6 0 0 1-6.6 6.6h-1.8a6.6 6.6 0 0 1-6.6-6.6v-1.8a6.6 6.6 0 0 1 6.6-6.6z" fill="none" stroke="#fff" stroke-width=".61" stroke-linecap="square" stroke-miterlimit="3"/><path fill="#FFF" fill-opacity=".2" vector-effect="non-scaling-stroke" stroke-width=".61" stroke="#FFF" stroke-linecap="square" stroke-miterlimit="3" d="M40 42.5h81v15H40zm0 30h81v15H40z"/></g></svg>