<svg xmlns="http://www.w3.org/2000/svg" style="isolation:isolate" viewBox="0 0 140 100" width="140" height="100"><defs><clipPath id="a"><path d="M0 0h140v100H0z"/></clipPath></defs><g style="isolation:isolate" clip-path="url(#a)"><path d="M63.45 63.73a.81.81 0 0 1-.37-.09.79.79 0 0 1-.41-.68v-25.9a.77.77 0 1 1 1.2-.65l19.67 12.95c.22.15.34.38.34.65 0 .26-.13.5-.34.64L63.87 63.6a.84.84 0 0 1-.42.13zm.78-25.24V61.5L81.71 50 64.23 38.48zM70 77.32a27.35 27.35 0 0 1-27.32-27.33A27.35 27.35 0 0 1 70 22.7 27.35 27.35 0 0 1 97.32 50 27.36 27.36 0 0 1 70 77.32zm0-53.08a25.8 25.8 0 0 0-25.77 25.77A25.8 25.8 0 0 0 70 75.77a25.8 25.8 0 0 0 25.77-25.76A25.8 25.8 0 0 0 70 24.24zm0 49.46A23.73 23.73 0 0 1 46.3 50 23.73 23.73 0 0 1 70 26.3 23.73 23.73 0 0 1 93.71 50 23.74 23.74 0 0 1 70 73.7zm0-46.78a23.1 23.1 0 0 0-23.08 23.07A23.12 23.12 0 0 0 70 73.1 23.13 23.13 0 0 0 93.09 50 23.1 23.1 0 0 0 70 26.92z" fill="#FFF"/><path fill="none" vector-effect="non-scaling-stroke" stroke-width="2" stroke="#FFF" stroke-opacity=".2" stroke-linecap="square" stroke-miterlimit="3" d="M5 5h130v90H5z"/></g></svg>