<?xml version="1.0" standalone="no"?><!-- Generator: Gravit.io --><svg xmlns="http://www.w3.org/2000/svg" xmlns:xlink="http://www.w3.org/1999/xlink" style="isolation:isolate" viewBox="0 0 50 50" width="50" height="50"><defs><clipPath id="_clipPath_k00JZNRSgpEyiwrE2DV6QSEDeuexzFEd"><rect width="50" height="50"/></clipPath></defs><g clip-path="url(#_clipPath_k00JZNRSgpEyiwrE2DV6QSEDeuexzFEd)"><g style="isolation:isolate" id="domEditor"><path d=" M 38.272 5 C 36.488 4.996 34.776 5.705 33.517 6.969 C 33.416 7.066 30.15 10.338 28.763 11.725 L 27.706 10.667 C 27.122 10.085 26.177 10.085 25.593 10.667 L 22.422 13.838 C 21.84 14.422 21.84 15.367 22.422 15.951 L 23.432 16.96 L 12.866 27.527 C 11.221 29.172 10.29 30.392 9.695 31.466 C 9.102 32.541 8.914 33.495 8.782 34.156 C 8.652 34.817 8.555 35.225 8.158 35.933 C 7.762 36.64 6.993 37.627 5.469 39.152 C 5.169 39.441 5 39.84 5 40.256 C 5 40.672 5.169 41.071 5.469 41.36 L 8.639 44.531 C 8.929 44.831 9.327 45 9.744 45 C 10.16 45 10.558 44.831 10.848 44.531 C 12.372 43.007 13.358 42.238 14.066 41.842 C 14.773 41.445 15.183 41.35 15.843 41.216 C 16.504 41.085 17.458 40.898 18.532 40.304 C 19.608 39.71 20.825 38.78 22.471 37.134 L 33.038 26.566 L 34.046 27.575 C 34.63 28.157 35.575 28.157 36.159 27.575 L 39.33 24.405 C 39.611 24.125 39.769 23.745 39.769 23.349 C 39.769 22.952 39.611 22.572 39.33 22.292 L 38.272 21.234 C 39.659 19.848 42.924 16.577 43.027 16.48 C 44.29 15.22 45 13.509 45 11.725 C 45 9.94 44.29 8.229 43.027 6.969 C 41.768 5.705 40.056 4.996 38.272 5 Z  M 25.593 19.218 L 30.78 24.405 C 29.284 25.901 22.176 33.016 20.261 34.925 C 18.737 36.45 17.704 37.218 16.995 37.615 C 16.288 38.011 15.927 38.106 15.266 38.239 C 14.605 38.371 13.653 38.557 12.577 39.152 C 11.839 39.559 10.812 40.447 9.84 41.313 L 8.687 40.16 C 9.552 39.187 10.439 38.162 10.848 37.422 C 11.443 36.347 11.629 35.394 11.761 34.733 C 11.893 34.072 11.988 33.663 12.385 32.954 C 12.781 32.247 13.55 31.262 15.074 29.737 L 25.593 19.218 Z " fill="rgb(70,70,70)"/></g></g></svg>