<?xml version="1.0" standalone="no"?><!-- Generator: Gravit.io --><svg xmlns="http://www.w3.org/2000/svg" xmlns:xlink="http://www.w3.org/1999/xlink" style="isolation:isolate" viewBox="0 0 50 50" width="50" height="50"><defs><clipPath id="_clipPath_U0ASn9ptZCIXtSAB08hvtUpP5KB3A66x"><rect width="50" height="50"/></clipPath></defs><g clip-path="url(#_clipPath_U0ASn9ptZCIXtSAB08hvtUpP5KB3A66x)"><g style="isolation:isolate" id="display"><g style="isolation:isolate" id="block"><rect x="5" y="4.997" width="40" height="40" transform="matrix(1,0,0,1,0,0)" fill="rgb(235,235,235)" fill-opacity="0.2" vector-effect="non-scaling-stroke" stroke-width="0.5" stroke="rgb(255,255,255)" stroke-linejoin="miter" stroke-linecap="square" stroke-miterlimit="3"/></g><g style="isolation:isolate" id="inline"><clipPath id="_clipPath_VCbOWePp7CgpfKOOb4892a5dRTIIzGZ6"><path d=" M 44.969 44.684 L 4.634 44.684 L 4.634 4.848 L 44.969 4.848 L 44.969 44.684 Z " fill="rgb(255,255,255)"/></clipPath><g clip-path="url(#_clipPath_VCbOWePp7CgpfKOOb4892a5dRTIIzGZ6)"><path d=" M 10.17 10.027 L 10.17 15.959 L 17.975 15.959 L 17.975 39.687 L 22.658 39.687 L 22.658 15.959 L 30.464 15.959 L 30.464 10.027 L 10.17 10.027 Z  M 39.83 19.914 L 25.781 19.914 L 25.781 25.846 L 30.464 25.846 L 30.464 39.687 L 35.147 39.687 L 35.147 25.846 L 39.83 25.846 L 39.83 19.914 Z " fill="rgb(255,255,255)" fill-opacity="0.4" vector-effect="non-scaling-stroke" stroke-width="0.371" stroke="rgb(255,255,255)" stroke-linejoin="miter" stroke-linecap="butt" stroke-miterlimit="4"/></g></g></g></g></svg>