<?xml version="1.0" standalone="no"?><!-- Generator: Gravit.io --><svg xmlns="http://www.w3.org/2000/svg" xmlns:xlink="http://www.w3.org/1999/xlink" style="isolation:isolate" viewBox="0 0 50 50" width="50" height="50"><defs><clipPath id="_clipPath_WQdb4NRw3q64ynjtsU5aS2yI6Ytxa5PT"><rect width="50" height="50"/></clipPath></defs><g clip-path="url(#_clipPath_WQdb4NRw3q64ynjtsU5aS2yI6Ytxa5PT)"><g style="isolation:isolate" id="display"/><g style="isolation:isolate" id="invisible"><path d=" M 8.992 5 L 7.117 7.098 L 15.224 16.116 L 29.685 32.29 L 32.169 35.116 L 41.008 45 L 42.882 42.905 L 34.776 33.84 C 40.295 30.781 43.996 26.243 44.226 25.957 L 45 25.001 L 44.226 24.044 C 43.874 23.606 35.54 13.338 25 13.338 C 22.449 13.338 20.04 13.965 17.831 14.887 L 8.992 5 Z  M 25 16.253 C 27.805 16.253 30.459 17.135 32.821 18.35 C 33.668 19.917 34.119 21.712 34.124 23.543 C 34.123 26.092 33.265 28.548 31.721 30.423 L 28.015 26.276 C 28.558 25.53 28.91 24.585 28.91 23.543 C 28.91 21.127 27.16 19.169 25 19.169 C 24.068 19.169 23.223 19.563 22.556 20.172 L 19.909 17.21 C 21.528 16.651 23.223 16.253 25 16.253 Z  M 12.861 17.574 C 8.681 20.451 5.967 23.799 5.774 24.044 L 5 25.001 L 5.774 25.957 C 6.111 26.38 13.83 35.827 23.779 36.573 C 24.18 36.617 24.587 36.664 25 36.664 C 25.409 36.657 25.817 36.626 26.223 36.572 C 27.278 36.5 28.327 36.332 29.359 36.072 L 27.036 33.474 C 26.369 33.652 25.686 33.744 25 33.748 C 19.969 33.748 15.876 29.17 15.876 23.543 C 15.876 22.769 15.967 22.012 16.121 21.264 L 12.861 17.574 Z  M 13.595 20.535 C 13.382 21.52 13.273 22.53 13.269 23.543 C 13.264 25.975 13.871 28.359 15.021 30.423 C 12.689 28.91 10.528 27.09 8.584 25.001 C 10.125 23.339 11.803 21.844 13.595 20.535 L 13.595 20.535 Z  M 36.405 20.535 C 38.196 21.846 39.874 23.341 41.416 25.001 C 40.244 26.265 37.928 28.555 34.939 30.468 C 36.104 28.393 36.725 25.993 36.731 23.543 C 36.731 22.522 36.614 21.516 36.405 20.535 Z " fill="rgb(255,255,255)" fill-opacity="0.2" vector-effect="non-scaling-stroke" stroke-width="0.5" stroke="rgb(255,255,255)" stroke-linejoin="miter" stroke-linecap="butt" stroke-miterlimit="4"/></g></g></svg>