<?xml version="1.0" standalone="no"?><!-- Generator: Gravit.io --><svg xmlns="http://www.w3.org/2000/svg" xmlns:xlink="http://www.w3.org/1999/xlink" style="isolation:isolate" viewBox="0 0 50 50" width="50" height="50"><defs><clipPath id="_clipPath_zx9DKWya70KXDUd8sEXBuucrOmbsGOAG"><rect width="50" height="50"/></clipPath></defs><g clip-path="url(#_clipPath_zx9DKWya70KXDUd8sEXBuucrOmbsGOAG)"><g style="isolation:isolate" id="display"/><g style="isolation:isolate" id="position"><g style="isolation:isolate" id="fixed"><rect x="10" y="15" width="30" height="10" transform="matrix(1,0,0,1,0,0)" fill="rgb(255,255,255)" fill-opacity="0.3" vector-effect="non-scaling-stroke" stroke-width="0.652" stroke="rgb(255,255,255)" stroke-linejoin="miter" stroke-linecap="square" stroke-miterlimit="3"/></g><g style="isolation:isolate" id="screen"><path d=" M 3.786 7.8 C 3.786 6.696 4.506 5.8 5.393 5.8 C 6.28 5.8 7 6.696 7 7.8 C 7 8.904 6.28 9.8 5.393 9.8 C 4.506 9.8 3.786 8.904 3.786 7.8 Z " fill="rgb(255,255,255)"/><path d=" M 8.286 7.8 C 8.286 6.696 9.006 5.8 9.893 5.8 C 10.78 5.8 11.5 6.696 11.5 7.8 C 11.5 8.904 10.78 9.8 9.893 9.8 C 9.006 9.8 8.286 8.904 8.286 7.8 Z " fill="rgb(255,255,255)"/><line x1="2.5" y1="11" x2="47.5" y2="11" vector-effect="non-scaling-stroke" stroke-width="0.359" stroke="rgb(255,255,255)" stroke-linejoin="miter" stroke-linecap="square" stroke-miterlimit="3"/><path d="M 4.114 5 L 45.886 5 C 46.777 5 47.5 5.723 47.5 6.614 L 47.5 43.386 C 47.5 44.277 46.777 45 45.886 45 L 4.114 45 C 3.223 45 2.5 44.277 2.5 43.386 L 2.5 6.614 C 2.5 5.723 3.223 5 4.114 5 Z" style="fill:none;stroke:#FFFFFF;stroke-width:0.35856858280031806;stroke-linecap:square;stroke-miterlimit:3;"/><path d=" M 12.786 7.8 C 12.786 6.696 13.506 5.8 14.393 5.8 C 15.28 5.8 16 6.696 16 7.8 C 16 8.904 15.28 9.8 14.393 9.8 C 13.506 9.8 12.786 8.904 12.786 7.8 Z " fill="rgb(255,255,255)"/></g></g></g></svg>