<?xml version="1.0" standalone="no"?><!-- Generator: Gravit.io --><svg xmlns="http://www.w3.org/2000/svg" xmlns:xlink="http://www.w3.org/1999/xlink" style="isolation:isolate" viewBox="0 0 500 570" width="500" height="570"><defs><clipPath id="_clipPath_476mxuop2F1fPuTi91JF9dw0ORZ1ywTj"><rect width="500" height="570"/></clipPath></defs><g clip-path="url(#_clipPath_476mxuop2F1fPuTi91JF9dw0ORZ1ywTj)"><clipPath id="_clipPath_sqNpajLsitt48gR7IUPhwiuNW4epq0LQ"><rect x="0" y="110" width="500" height="500" transform="matrix(1,0,0,1,0,0)" fill="rgb(255,255,255)"/></clipPath><g clip-path="url(#_clipPath_sqNpajLsitt48gR7IUPhwiuNW4epq0LQ)"><g id="Group"><path d=" M 205.819 305.202 C 205.819 297.06 212.492 290.449 220.71 290.449 C 228.929 290.449 235.601 297.06 235.601 305.202 C 235.601 313.345 228.929 319.955 220.71 319.955 C 212.492 319.955 205.819 313.345 205.819 305.202 Z " fill="rgb(86,138,242)"/><path d=" M 263.256 305.202 C 263.256 297.06 269.929 290.449 278.147 290.449 C 286.366 290.449 293.038 297.06 293.038 305.202 C 293.038 313.345 286.366 319.955 278.147 319.955 C 269.929 319.955 263.256 313.345 263.256 305.202 Z " fill="rgb(86,138,242)"/><path d=" M 469.205 336.268 C 476.932 349.569 476.932 370.335 469.205 383.732 L 380.344 536.268 C 372.618 549.569 354.363 560 338.909 560 L 156.455 560 C 155.393 559.904 149.598 559.617 140.229 554.545 C 133.661 551.005 124.678 544.88 119.656 536.268 L 30.795 383.732 C 23.068 370.431 23.068 349.569 30.795 336.268 L 119.656 183.732 C 127.382 170.431 145.637 160 161.091 160 L 338.909 160 C 354.363 160 372.618 170.431 380.344 183.732 L 469.205 336.268 L 469.205 336.268 Z  M 162.553 327.609 C 162.544 327.624 162.54 327.64 162.54 327.656 L 162.54 329.099 L 162.54 329.099 L 162.54 545.359 L 162.54 545.359 C 233.435 515.694 336.687 441.244 338.909 335.024 L 338.909 329.099 L 338.909 329.099 L 338.909 327.943 C 338.909 327.93 338.906 327.917 338.899 327.905 C 338.266 279.383 298.999 240.188 250.724 240.188 C 202.548 240.188 163.343 279.224 162.553 327.609 Z  M 458.773 377.703 C 464.375 368.038 464.375 351.77 458.87 342.201 L 370.01 189.665 C 364.408 180.096 350.209 171.962 339.005 171.962 L 161.188 171.962 C 149.984 171.962 135.786 180.096 130.184 189.665 L 41.323 342.201 C 35.721 351.866 35.721 368.134 41.323 377.703 L 130.184 530.239 C 132.985 535.12 138.683 540 146.12 544.019 C 147.762 544.976 149.211 545.55 150.563 546.124 L 150.563 327.656 C 150.563 302.584 160.126 279.809 175.676 262.392 L 184.079 254.067 C 201.658 238.66 224.646 229.187 249.952 229.187 C 275.258 229.187 298.245 238.66 315.824 254.067 L 324.324 262.488 C 339.874 279.904 349.437 302.775 349.437 327.751 L 338.909 547.943 C 350.113 547.943 364.311 539.809 369.913 530.239 L 458.773 377.703 L 458.773 377.703 Z " fill="rgb(86,138,242)"/></g></g><g transform="matrix(1,0,0,1,111,-13)"><text transform="matrix(1,0,0,1,0.158,106.885)" style="font-family:&quot;Open Sans&quot;;font-weight:400;font-size:100px;font-style:normal;fill:#568af2;stroke:none;">GWvP</text></g><g transform="matrix(1,0,0,1,119,114)"><text transform="matrix(1,0,0,1,0,21.377)" style="font-family:&quot;Open Sans&quot;;font-weight:400;font-size:20px;font-style:normal;fill:#568af2;stroke:none;">A free serverless web editor</text></g></g></svg>