<svg xmlns="http://www.w3.org/2000/svg" style="isolation:isolate" viewBox="0 0 500 500" width="500" height="500"><defs><clipPath id="a"><path d="M0 0h500v500H0z"/></clipPath></defs><g clip-path="url(#a)" fill="#568AF2"><path d="M205.819 195.202c0-8.142 6.673-14.753 14.891-14.753 8.219 0 14.891 6.611 14.891 14.753 0 8.143-6.672 14.753-14.891 14.753-8.218 0-14.891-6.61-14.891-14.753zm57.437 0c0-8.142 6.673-14.753 14.891-14.753 8.219 0 14.891 6.611 14.891 14.753 0 8.143-6.672 14.753-14.891 14.753-8.218 0-14.891-6.61-14.891-14.753z"/><path d="M469.205 226.268c7.727 13.301 7.727 34.067 0 47.464l-88.861 152.536C372.618 439.569 354.363 450 338.909 450H156.455c-1.062-.096-6.857-.383-16.226-5.455-6.568-3.54-15.551-9.665-20.573-18.277L30.795 273.732c-7.727-13.301-7.727-34.163 0-47.464l88.861-152.536C127.382 60.431 145.637 50 161.091 50h177.818c15.454 0 33.709 10.431 41.435 23.732l88.861 152.536zm-306.652-8.659c-.009.015-.013.031-.013.047v217.703c70.895-29.665 174.147-104.115 176.369-210.335v-7.081c0-.013-.003-.026-.01-.038-.633-48.522-39.9-87.717-88.175-87.717-48.176 0-87.381 39.036-88.171 87.421zm296.22 50.094c5.602-9.665 5.602-25.933.097-35.502L370.01 79.665c-5.602-9.569-19.801-17.703-31.005-17.703H161.188c-11.204 0-25.402 8.134-31.004 17.703L41.323 232.201c-5.602 9.665-5.602 25.933 0 35.502l88.861 152.536c2.801 4.881 8.499 9.761 15.936 13.78 1.642.957 3.091 1.531 4.443 2.105V217.656c0-25.072 9.563-47.847 25.113-65.264l8.403-8.325c17.579-15.407 40.567-24.88 65.873-24.88 25.306 0 48.293 9.473 65.872 24.88l8.5 8.421c15.55 17.416 25.113 40.287 25.113 65.263l-10.528 220.192c11.204 0 25.402-8.134 31.004-17.704l88.86-152.536z"/></g></svg>